<?xml version="1.0" encoding="UTF-8" standalone="no"?>
<!DOCTYPE svg PUBLIC "-//W3C//DTD SVG 1.1//EN"
 "http://www.w3.org/Graphics/SVG/1.1/DTD/svg11.dtd">
<!-- Generated by graphviz version 12.1.2 (20240928.0832)
 -->
<!-- Pages: 1 -->
<svg width="1013pt" height="627pt"
 viewBox="0.00 0.00 1012.80 627.00" xmlns="http://www.w3.org/2000/svg" xmlns:xlink="http://www.w3.org/1999/xlink">
<g id="graph0" class="graph" transform="scale(1 1) rotate(0) translate(4 623)">
<polygon fill="white" stroke="none" points="-4,4 -4,-623 1008.8,-623 1008.8,4 -4,4"/>
<g id="clust1" class="cluster">
<title>cluster~</title>
<path fill="none" stroke="black" stroke-width="2.6" d="M20,-8C20,-8 979,-8 979,-8 985,-8 991,-14 991,-20 991,-20 991,-599 991,-599 991,-605 985,-611 979,-611 979,-611 20,-611 20,-611 14,-611 8,-605 8,-599 8,-599 8,-20 8,-20 8,-14 14,-8 20,-8"/>
<text text-anchor="middle" x="499.5" y="-594.65" font-family="Arial Black" font-size="13.00">practice_1</text>
</g>
<g id="clust2" class="cluster">
<title>cluster~/bin</title>
<path fill="none" stroke="black" stroke-width="2.6" d="M719,-496C719,-496 797,-496 797,-496 803,-496 809,-502 809,-508 809,-508 809,-563.5 809,-563.5 809,-569.5 803,-575.5 797,-575.5 797,-575.5 719,-575.5 719,-575.5 713,-575.5 707,-569.5 707,-563.5 707,-563.5 707,-508 707,-508 707,-502 713,-496 719,-496"/>
<text text-anchor="middle" x="758" y="-559.15" font-family="Arial Black" font-size="13.00">bin</text>
</g>
<g id="clust3" class="cluster">
<title>cluster~/lib</title>
<path fill="none" stroke="black" stroke-width="2.6" d="M28,-16C28,-16 971,-16 971,-16 977,-16 983,-22 983,-28 983,-28 983,-476 983,-476 983,-482 977,-488 971,-488 971,-488 28,-488 28,-488 22,-488 16,-482 16,-476 16,-476 16,-28 16,-28 16,-22 22,-16 28,-16"/>
<text text-anchor="middle" x="499.5" y="-471.65" font-family="Arial Black" font-size="13.00">lib</text>
</g>
<g id="clust4" class="cluster">
<title>cluster~/lib/features</title>
<path fill="none" stroke="black" stroke-width="2.6" d="M36,-24C36,-24 963,-24 963,-24 969,-24 975,-30 975,-36 975,-36 975,-440.5 975,-440.5 975,-446.5 969,-452.5 963,-452.5 963,-452.5 36,-452.5 36,-452.5 30,-452.5 24,-446.5 24,-440.5 24,-440.5 24,-36 24,-36 24,-30 30,-24 36,-24"/>
<text text-anchor="middle" x="499.5" y="-436.15" font-family="Arial Black" font-size="13.00">features</text>
</g>
<g id="clust5" class="cluster">
<title>cluster~/lib/features/core</title>
<path fill="none" stroke="black" stroke-width="2.6" d="M44,-32C44,-32 955,-32 955,-32 961,-32 967,-38 967,-44 967,-44 967,-405 967,-405 967,-411 961,-417 955,-417 955,-417 44,-417 44,-417 38,-417 32,-411 32,-405 32,-405 32,-44 32,-44 32,-38 38,-32 44,-32"/>
<text text-anchor="middle" x="499.5" y="-400.65" font-family="Arial Black" font-size="13.00">core</text>
</g>
<g id="clust6" class="cluster">
<title>cluster~/lib/features/core/data</title>
<path fill="none" stroke="black" stroke-width="2.6" d="M347,-40C347,-40 947,-40 947,-40 953,-40 959,-46 959,-52 959,-52 959,-369.5 959,-369.5 959,-375.5 953,-381.5 947,-381.5 947,-381.5 347,-381.5 347,-381.5 341,-381.5 335,-375.5 335,-369.5 335,-369.5 335,-52 335,-52 335,-46 341,-40 347,-40"/>
<text text-anchor="middle" x="647" y="-365.15" font-family="Arial Black" font-size="13.00">data</text>
</g>
<g id="clust7" class="cluster">
<title>cluster~/lib/features/core/data/debug</title>
<path fill="none" stroke="black" stroke-width="2.6" d="M355,-266.5C355,-266.5 541,-266.5 541,-266.5 547,-266.5 553,-272.5 553,-278.5 553,-278.5 553,-334 553,-334 553,-340 547,-346 541,-346 541,-346 355,-346 355,-346 349,-346 343,-340 343,-334 343,-334 343,-278.5 343,-278.5 343,-272.5 349,-266.5 355,-266.5"/>
<text text-anchor="middle" x="448" y="-329.65" font-family="Arial Black" font-size="13.00">debug</text>
</g>
<g id="clust8" class="cluster">
<title>cluster~/lib/features/core/data/osm</title>
<path fill="none" stroke="black" stroke-width="2.6" d="M573,-48C573,-48 745,-48 745,-48 751,-48 757,-54 757,-60 757,-60 757,-334 757,-334 757,-340 751,-346 745,-346 745,-346 573,-346 573,-346 567,-346 561,-340 561,-334 561,-334 561,-60 561,-60 561,-54 567,-48 573,-48"/>
<text text-anchor="middle" x="659" y="-329.65" font-family="Arial Black" font-size="13.00">osm</text>
</g>
<g id="clust9" class="cluster">
<title>cluster~/lib/features/core/data/osm/models</title>
<path fill="none" stroke="black" stroke-width="2.6" d="M624,-56C624,-56 722,-56 722,-56 728,-56 734,-62 734,-68 734,-68 734,-123.5 734,-123.5 734,-129.5 728,-135.5 722,-135.5 722,-135.5 624,-135.5 624,-135.5 618,-135.5 612,-129.5 612,-123.5 612,-123.5 612,-68 612,-68 612,-62 618,-56 624,-56"/>
<text text-anchor="middle" x="673" y="-119.15" font-family="Arial Black" font-size="13.00">models</text>
</g>
<g id="clust10" class="cluster">
<title>cluster~/lib/features/core/data/wa</title>
<path fill="none" stroke="black" stroke-width="2.6" d="M777,-48C777,-48 939,-48 939,-48 945,-48 951,-54 951,-60 951,-60 951,-334 951,-334 951,-340 945,-346 939,-346 939,-346 777,-346 777,-346 771,-346 765,-340 765,-334 765,-334 765,-60 765,-60 765,-54 771,-48 777,-48"/>
<text text-anchor="middle" x="858" y="-329.65" font-family="Arial Black" font-size="13.00">wa</text>
</g>
<g id="clust11" class="cluster">
<title>cluster~/lib/features/core/data/wa/models</title>
<path fill="none" stroke="black" stroke-width="2.6" d="M828,-56C828,-56 916,-56 916,-56 922,-56 928,-62 928,-68 928,-68 928,-123.5 928,-123.5 928,-129.5 922,-135.5 916,-135.5 916,-135.5 828,-135.5 828,-135.5 822,-135.5 816,-129.5 816,-123.5 816,-123.5 816,-68 816,-68 816,-62 822,-56 828,-56"/>
<text text-anchor="middle" x="872" y="-119.15" font-family="Arial Black" font-size="13.00">models</text>
</g>
<g id="clust12" class="cluster">
<title>cluster~/lib/features/core/domain</title>
<path fill="none" stroke="black" stroke-width="2.6" d="M52,-48C52,-48 315,-48 315,-48 321,-48 327,-54 327,-60 327,-60 327,-246.5 327,-246.5 327,-252.5 321,-258.5 315,-258.5 315,-258.5 52,-258.5 52,-258.5 46,-258.5 40,-252.5 40,-246.5 40,-246.5 40,-60 40,-60 40,-54 46,-48 52,-48"/>
<text text-anchor="middle" x="183.5" y="-242.15" font-family="Arial Black" font-size="13.00">domain</text>
</g>
<g id="clust13" class="cluster">
<title>cluster~/lib/features/core/domain/entities</title>
<path fill="none" stroke="black" stroke-width="2.6" d="M60,-56C60,-56 307,-56 307,-56 313,-56 319,-62 319,-68 319,-68 319,-123.5 319,-123.5 319,-129.5 313,-135.5 307,-135.5 307,-135.5 60,-135.5 60,-135.5 54,-135.5 48,-129.5 48,-123.5 48,-123.5 48,-68 48,-68 48,-62 54,-56 60,-56"/>
<text text-anchor="middle" x="183.5" y="-119.15" font-family="Arial Black" font-size="13.00">entities</text>
</g>
<g id="clust14" class="cluster">
<title>cluster~/lib/features/core/domain/repositories</title>
<path fill="none" stroke="black" stroke-width="2.6" d="M171,-143.5C171,-143.5 307,-143.5 307,-143.5 313,-143.5 319,-149.5 319,-155.5 319,-155.5 319,-211 319,-211 319,-217 313,-223 307,-223 307,-223 171,-223 171,-223 165,-223 159,-217 159,-211 159,-211 159,-155.5 159,-155.5 159,-149.5 165,-143.5 171,-143.5"/>
<text text-anchor="middle" x="239" y="-206.65" font-family="Arial Black" font-size="13.00">repositories</text>
</g>
<g id="clust15" class="cluster">
<title>cluster~/lib/features/core/presentation</title>
<path fill="none" stroke="black" stroke-width="2.6" d="M197,-266.5C197,-266.5 282,-266.5 282,-266.5 288,-266.5 294,-272.5 294,-278.5 294,-278.5 294,-334 294,-334 294,-340 288,-346 282,-346 282,-346 197,-346 197,-346 191,-346 185,-340 185,-334 185,-334 185,-278.5 185,-278.5 185,-272.5 191,-266.5 197,-266.5"/>
<text text-anchor="middle" x="239.5" y="-329.65" font-family="Arial Black" font-size="13.00">presentation</text>
</g>
<!-- /bin/practice_1.dart -->
<g id="node1" class="node">
<title>/bin/practice_1.dart</title>
<path fill="Lavender" stroke="black" stroke-width="1.3" d="M788.5,-540C788.5,-540 727.5,-540 727.5,-540 721.5,-540 715.5,-534 715.5,-528 715.5,-528 715.5,-516 715.5,-516 715.5,-510 721.5,-504 727.5,-504 727.5,-504 788.5,-504 788.5,-504 794.5,-504 800.5,-510 800.5,-516 800.5,-516 800.5,-528 800.5,-528 800.5,-534 794.5,-540 788.5,-540"/>
<text text-anchor="middle" x="758" y="-516.75" font-family="Arial" font-size="15.00">practice_1</text>
</g>
<!-- /lib/features/core/data/debug/weather_repository_debug.dart -->
<g id="node2" class="node">
<title>/lib/features/core/data/debug/weather_repository_debug.dart</title>
<path fill="Lavender" stroke="black" stroke-width="1.3" d="M532.5,-310.5C532.5,-310.5 363.5,-310.5 363.5,-310.5 357.5,-310.5 351.5,-304.5 351.5,-298.5 351.5,-298.5 351.5,-286.5 351.5,-286.5 351.5,-280.5 357.5,-274.5 363.5,-274.5 363.5,-274.5 532.5,-274.5 532.5,-274.5 538.5,-274.5 544.5,-280.5 544.5,-286.5 544.5,-286.5 544.5,-298.5 544.5,-298.5 544.5,-304.5 538.5,-310.5 532.5,-310.5"/>
<text text-anchor="middle" x="448" y="-287.25" font-family="Arial" font-size="15.00">weather_repository_debug</text>
</g>
<!-- /bin/practice_1.dart&#45;&gt;/lib/features/core/data/debug/weather_repository_debug.dart -->
<g id="edge1" class="edge">
<title>/bin/practice_1.dart&#45;&gt;/lib/features/core/data/debug/weather_repository_debug.dart</title>
<path fill="none" stroke="black" stroke-width="1.3" d="M715.32,-518.31C664.08,-514.35 581.9,-505.46 557,-488 499.18,-447.47 468.41,-365.94 455.51,-322.42"/>
<polygon fill="black" stroke="black" stroke-width="1.3" points="458.89,-321.53 452.8,-312.86 452.16,-323.44 458.89,-321.53"/>
</g>
<!-- /lib/features/core/data/osm/osm_api.dart -->
<g id="node4" class="node">
<title>/lib/features/core/data/osm/osm_api.dart</title>
<path fill="Lavender" stroke="black" stroke-width="1.3" d="M697.12,-187.5C697.12,-187.5 648.88,-187.5 648.88,-187.5 642.88,-187.5 636.88,-181.5 636.88,-175.5 636.88,-175.5 636.88,-163.5 636.88,-163.5 636.88,-157.5 642.88,-151.5 648.88,-151.5 648.88,-151.5 697.12,-151.5 697.12,-151.5 703.12,-151.5 709.12,-157.5 709.12,-163.5 709.12,-163.5 709.12,-175.5 709.12,-175.5 709.12,-181.5 703.12,-187.5 697.12,-187.5"/>
<text text-anchor="middle" x="673" y="-164.25" font-family="Arial" font-size="15.00">osm_api</text>
</g>
<!-- /bin/practice_1.dart&#45;&gt;/lib/features/core/data/osm/osm_api.dart -->
<g id="edge2" class="edge">
<title>/bin/practice_1.dart&#45;&gt;/lib/features/core/data/osm/osm_api.dart</title>
<path fill="none" stroke="black" stroke-width="1.3" d="M800.59,-520.06C852.47,-517.92 935.62,-510.9 955,-488 970.9,-469.21 972.04,-284.26 955,-266.5 940.06,-250.93 780.76,-267.16 761,-258.5 731.75,-245.67 706.94,-218.32 691.2,-197.49"/>
<polygon fill="black" stroke="black" stroke-width="1.3" points="694.08,-195.51 685.37,-189.48 688.42,-199.62 694.08,-195.51"/>
</g>
<!-- /lib/features/core/data/osm/weather_repository_osm.dart -->
<g id="node5" class="node">
<title>/lib/features/core/data/osm/weather_repository_osm.dart</title>
<path fill="Lavender" stroke="black" stroke-width="1.3" d="M737.12,-310.5C737.12,-310.5 580.88,-310.5 580.88,-310.5 574.88,-310.5 568.88,-304.5 568.88,-298.5 568.88,-298.5 568.88,-286.5 568.88,-286.5 568.88,-280.5 574.88,-274.5 580.88,-274.5 580.88,-274.5 737.12,-274.5 737.12,-274.5 743.12,-274.5 749.12,-280.5 749.12,-286.5 749.12,-286.5 749.12,-298.5 749.12,-298.5 749.12,-304.5 743.12,-310.5 737.12,-310.5"/>
<text text-anchor="middle" x="659" y="-287.25" font-family="Arial" font-size="15.00">weather_repository_osm</text>
</g>
<!-- /bin/practice_1.dart&#45;&gt;/lib/features/core/data/osm/weather_repository_osm.dart -->
<g id="edge3" class="edge">
<title>/bin/practice_1.dart&#45;&gt;/lib/features/core/data/osm/weather_repository_osm.dart</title>
<path fill="none" stroke="black" stroke-width="1.3" d="M750.4,-503.53C733.33,-464.31 691.86,-369.01 671.16,-321.45"/>
<polygon fill="black" stroke="black" stroke-width="1.3" points="674.48,-320.3 667.28,-312.53 668.06,-323.09 674.48,-320.3"/>
</g>
<!-- /lib/features/core/data/wa/wa_api.dart -->
<g id="node7" class="node">
<title>/lib/features/core/data/wa/wa_api.dart</title>
<path fill="Lavender" stroke="black" stroke-width="1.3" d="M891.25,-187.5C891.25,-187.5 852.75,-187.5 852.75,-187.5 846.75,-187.5 840.75,-181.5 840.75,-175.5 840.75,-175.5 840.75,-163.5 840.75,-163.5 840.75,-157.5 846.75,-151.5 852.75,-151.5 852.75,-151.5 891.25,-151.5 891.25,-151.5 897.25,-151.5 903.25,-157.5 903.25,-163.5 903.25,-163.5 903.25,-175.5 903.25,-175.5 903.25,-181.5 897.25,-187.5 891.25,-187.5"/>
<text text-anchor="middle" x="872" y="-164.25" font-family="Arial" font-size="15.00">wa_api</text>
</g>
<!-- /bin/practice_1.dart&#45;&gt;/lib/features/core/data/wa/wa_api.dart -->
<g id="edge4" class="edge">
<title>/bin/practice_1.dart&#45;&gt;/lib/features/core/data/wa/wa_api.dart</title>
<path fill="none" stroke="black" stroke-width="1.3" d="M800.59,-520.5C855.14,-518.85 945.17,-512.4 966,-488 1029.92,-413.13 1003.19,-357.65 966,-266.5 954.1,-237.34 928.61,-212.23 907.17,-195.02"/>
<polygon fill="black" stroke="black" stroke-width="1.3" points="909.58,-192.46 899.53,-189.11 905.3,-198 909.58,-192.46"/>
</g>
<!-- /lib/features/core/data/wa/weather_repository_wa.dart -->
<g id="node8" class="node">
<title>/lib/features/core/data/wa/weather_repository_wa.dart</title>
<path fill="Lavender" stroke="black" stroke-width="1.3" d="M931.25,-310.5C931.25,-310.5 784.75,-310.5 784.75,-310.5 778.75,-310.5 772.75,-304.5 772.75,-298.5 772.75,-298.5 772.75,-286.5 772.75,-286.5 772.75,-280.5 778.75,-274.5 784.75,-274.5 784.75,-274.5 931.25,-274.5 931.25,-274.5 937.25,-274.5 943.25,-280.5 943.25,-286.5 943.25,-286.5 943.25,-298.5 943.25,-298.5 943.25,-304.5 937.25,-310.5 931.25,-310.5"/>
<text text-anchor="middle" x="858" y="-287.25" font-family="Arial" font-size="15.00">weather_repository_wa</text>
</g>
<!-- /bin/practice_1.dart&#45;&gt;/lib/features/core/data/wa/weather_repository_wa.dart -->
<g id="edge5" class="edge">
<title>/bin/practice_1.dart&#45;&gt;/lib/features/core/data/wa/weather_repository_wa.dart</title>
<path fill="none" stroke="black" stroke-width="1.3" d="M765.68,-503.53C782.92,-464.31 824.81,-369.01 845.71,-321.45"/>
<polygon fill="black" stroke="black" stroke-width="1.3" points="848.82,-323.09 849.64,-312.52 842.41,-320.27 848.82,-323.09"/>
</g>
<!-- /lib/features/core/presentation/app.dart -->
<g id="node12" class="node">
<title>/lib/features/core/presentation/app.dart</title>
<path fill="Lavender" stroke="black" stroke-width="1.3" d="M254,-310.5C254,-310.5 224,-310.5 224,-310.5 218,-310.5 212,-304.5 212,-298.5 212,-298.5 212,-286.5 212,-286.5 212,-280.5 218,-274.5 224,-274.5 224,-274.5 254,-274.5 254,-274.5 260,-274.5 266,-280.5 266,-286.5 266,-286.5 266,-298.5 266,-298.5 266,-304.5 260,-310.5 254,-310.5"/>
<text text-anchor="middle" x="239" y="-287.25" font-family="Arial" font-size="15.00">app</text>
</g>
<!-- /bin/practice_1.dart&#45;&gt;/lib/features/core/presentation/app.dart -->
<g id="edge6" class="edge">
<title>/bin/practice_1.dart&#45;&gt;/lib/features/core/presentation/app.dart</title>
<path fill="none" stroke="black" stroke-width="1.3" d="M715.15,-519.97C614.63,-517.22 369.79,-508.49 339,-488 281.05,-449.43 254.82,-366.35 244.59,-322.29"/>
<polygon fill="black" stroke="black" stroke-width="1.3" points="248.04,-321.67 242.49,-312.64 241.2,-323.16 248.04,-321.67"/>
</g>
<!-- /lib/features/core/domain/entities/search_query.dart -->
<g id="node9" class="node">
<title>/lib/features/core/domain/entities/search_query.dart</title>
<path fill="Lavender" stroke="black" stroke-width="1.3" d="M150.38,-100C150.38,-100 67.62,-100 67.62,-100 61.62,-100 55.63,-94 55.63,-88 55.63,-88 55.63,-76 55.63,-76 55.63,-70 61.63,-64 67.62,-64 67.62,-64 150.38,-64 150.38,-64 156.38,-64 162.38,-70 162.38,-76 162.38,-76 162.38,-88 162.38,-88 162.38,-94 156.38,-100 150.38,-100"/>
<text text-anchor="middle" x="109" y="-76.75" font-family="Arial" font-size="15.00">search_query</text>
</g>
<!-- /lib/features/core/data/debug/weather_repository_debug.dart&#45;&gt;/lib/features/core/domain/entities/search_query.dart -->
<g id="edge7" class="edge">
<title>/lib/features/core/data/debug/weather_repository_debug.dart&#45;&gt;/lib/features/core/domain/entities/search_query.dart</title>
<path fill="none" stroke="black" stroke-width="1.3" d="M405.26,-274.11C397.61,-269.76 390.13,-264.56 384,-258.5 342.85,-217.83 371.77,-174.62 323,-143.5 294.67,-125.42 203.28,-147.77 172,-135.5 157.19,-129.69 143.31,-118.95 132.37,-108.7"/>
<polygon fill="black" stroke="black" stroke-width="1.3" points="134.87,-106.25 125.31,-101.7 129.94,-111.22 134.87,-106.25"/>
</g>
<!-- /lib/features/core/domain/entities/search_response.dart -->
<g id="node10" class="node">
<title>/lib/features/core/domain/entities/search_response.dart</title>
<path fill="Lavender" stroke="black" stroke-width="1.3" d="M299.38,-100C299.38,-100 192.62,-100 192.62,-100 186.62,-100 180.62,-94 180.62,-88 180.62,-88 180.62,-76 180.62,-76 180.62,-70 186.62,-64 192.62,-64 192.62,-64 299.38,-64 299.38,-64 305.38,-64 311.38,-70 311.38,-76 311.38,-76 311.38,-88 311.38,-88 311.38,-94 305.38,-100 299.38,-100"/>
<text text-anchor="middle" x="246" y="-76.75" font-family="Arial" font-size="15.00">search_response</text>
</g>
<!-- /lib/features/core/data/debug/weather_repository_debug.dart&#45;&gt;/lib/features/core/domain/entities/search_response.dart -->
<g id="edge8" class="edge">
<title>/lib/features/core/data/debug/weather_repository_debug.dart&#45;&gt;/lib/features/core/domain/entities/search_response.dart</title>
<path fill="none" stroke="black" stroke-width="1.3" d="M444.81,-274.1C438.42,-243.8 421.32,-181.01 384,-143.5 367.11,-126.53 344.66,-113.96 322.78,-104.81"/>
<polygon fill="black" stroke="black" stroke-width="1.3" points="324.18,-101.6 313.59,-101.18 321.61,-108.11 324.18,-101.6"/>
</g>
<!-- /lib/features/core/domain/repositories/weather_repository.dart -->
<g id="node11" class="node">
<title>/lib/features/core/domain/repositories/weather_repository.dart</title>
<path fill="Lavender" stroke="black" stroke-width="1.3" d="M298.75,-187.5C298.75,-187.5 179.25,-187.5 179.25,-187.5 173.25,-187.5 167.25,-181.5 167.25,-175.5 167.25,-175.5 167.25,-163.5 167.25,-163.5 167.25,-157.5 173.25,-151.5 179.25,-151.5 179.25,-151.5 298.75,-151.5 298.75,-151.5 304.75,-151.5 310.75,-157.5 310.75,-163.5 310.75,-163.5 310.75,-175.5 310.75,-175.5 310.75,-181.5 304.75,-187.5 298.75,-187.5"/>
<text text-anchor="middle" x="239" y="-164.25" font-family="Arial" font-size="15.00">weather_repository</text>
</g>
<!-- /lib/features/core/data/debug/weather_repository_debug.dart&#45;&gt;/lib/features/core/domain/repositories/weather_repository.dart -->
<g id="edge9" class="edge">
<title>/lib/features/core/data/debug/weather_repository_debug.dart&#45;&gt;/lib/features/core/domain/repositories/weather_repository.dart</title>
<path fill="none" stroke="black" stroke-width="1.3" d="M405.95,-274.13C395.36,-269.38 384.13,-264.02 374,-258.5 338.27,-239.05 299.57,-213.3 272.8,-194.68"/>
<polygon fill="black" stroke="black" stroke-width="1.3" points="274.97,-191.93 264.77,-189.06 270.95,-197.66 274.97,-191.93"/>
</g>
<!-- /lib/features/core/data/osm/models/osm_weather.dart -->
<g id="node3" class="node">
<title>/lib/features/core/data/osm/models/osm_weather.dart</title>
<path fill="Lavender" stroke="black" stroke-width="1.3" d="M714,-100C714,-100 632,-100 632,-100 626,-100 620,-94 620,-88 620,-88 620,-76 620,-76 620,-70 626,-64 632,-64 632,-64 714,-64 714,-64 720,-64 726,-70 726,-76 726,-76 726,-88 726,-88 726,-94 720,-100 714,-100"/>
<text text-anchor="middle" x="673" y="-76.75" font-family="Arial" font-size="15.00">osm_weather</text>
</g>
<!-- /lib/features/core/data/osm/osm_api.dart&#45;&gt;/lib/features/core/data/osm/models/osm_weather.dart -->
<g id="edge10" class="edge">
<title>/lib/features/core/data/osm/osm_api.dart&#45;&gt;/lib/features/core/data/osm/models/osm_weather.dart</title>
<path fill="none" stroke="black" stroke-width="1.3" d="M673,-151.2C673,-139.96 673,-125.02 673,-112"/>
<polygon fill="black" stroke="black" stroke-width="1.3" points="676.5,-112.24 673,-102.24 669.5,-112.24 676.5,-112.24"/>
</g>
<!-- /lib/features/core/data/osm/weather_repository_osm.dart&#45;&gt;/lib/features/core/data/osm/osm_api.dart -->
<g id="edge11" class="edge">
<title>/lib/features/core/data/osm/weather_repository_osm.dart&#45;&gt;/lib/features/core/data/osm/osm_api.dart</title>
<path fill="none" stroke="black" stroke-width="1.3" d="M661.01,-274.16C663.26,-254.67 666.96,-222.69 669.66,-199.4"/>
<polygon fill="black" stroke="black" stroke-width="1.3" points="673.1,-200.09 670.77,-189.76 666.15,-199.29 673.1,-200.09"/>
</g>
<!-- /lib/features/core/data/osm/weather_repository_osm.dart&#45;&gt;/lib/features/core/domain/entities/search_query.dart -->
<g id="edge12" class="edge">
<title>/lib/features/core/data/osm/weather_repository_osm.dart&#45;&gt;/lib/features/core/domain/entities/search_query.dart</title>
<path fill="none" stroke="black" stroke-width="1.3" d="M594,-274.06C581.77,-271.21 569.05,-268.53 557,-266.5 538.29,-263.34 489.13,-266.65 472,-258.5 407.29,-227.72 424.47,-172.62 359,-143.5 321,-126.6 210.8,-150.49 172,-135.5 157.16,-129.77 143.28,-119.04 132.34,-108.77"/>
<polygon fill="black" stroke="black" stroke-width="1.3" points="134.84,-106.32 125.28,-101.75 129.91,-111.29 134.84,-106.32"/>
</g>
<!-- /lib/features/core/data/osm/weather_repository_osm.dart&#45;&gt;/lib/features/core/domain/entities/search_response.dart -->
<g id="edge13" class="edge">
<title>/lib/features/core/data/osm/weather_repository_osm.dart&#45;&gt;/lib/features/core/domain/entities/search_response.dart</title>
<path fill="none" stroke="black" stroke-width="1.3" d="M581.77,-274.01C564.91,-269.18 550.01,-263.8 543,-258.5 495.09,-222.27 520.19,-179.35 472,-143.5 428.96,-111.48 370.19,-96.4 323.36,-89.3"/>
<polygon fill="black" stroke="black" stroke-width="1.3" points="324.07,-85.86 313.68,-87.93 323.1,-92.79 324.07,-85.86"/>
</g>
<!-- /lib/features/core/data/osm/weather_repository_osm.dart&#45;&gt;/lib/features/core/domain/repositories/weather_repository.dart -->
<g id="edge14" class="edge">
<title>/lib/features/core/data/osm/weather_repository_osm.dart&#45;&gt;/lib/features/core/domain/repositories/weather_repository.dart</title>
<path fill="none" stroke="black" stroke-width="1.3" d="M594.29,-274.03C581.98,-271.16 569.15,-268.49 557,-266.5 515.18,-259.66 503.26,-268.16 462,-258.5 398.3,-243.59 328.76,-213.82 284.56,-193.05"/>
<polygon fill="black" stroke="black" stroke-width="1.3" points="286.2,-189.95 275.66,-188.82 283.19,-196.28 286.2,-189.95"/>
</g>
<!-- /lib/features/core/data/wa/models/wa_weather.dart -->
<g id="node6" class="node">
<title>/lib/features/core/data/wa/models/wa_weather.dart</title>
<path fill="Lavender" stroke="black" stroke-width="1.3" d="M908.12,-100C908.12,-100 835.88,-100 835.88,-100 829.88,-100 823.88,-94 823.88,-88 823.88,-88 823.88,-76 823.88,-76 823.88,-70 829.88,-64 835.88,-64 835.88,-64 908.12,-64 908.12,-64 914.12,-64 920.12,-70 920.12,-76 920.12,-76 920.12,-88 920.12,-88 920.12,-94 914.12,-100 908.12,-100"/>
<text text-anchor="middle" x="872" y="-76.75" font-family="Arial" font-size="15.00">wa_weather</text>
</g>
<!-- /lib/features/core/data/wa/wa_api.dart&#45;&gt;/lib/features/core/data/wa/models/wa_weather.dart -->
<g id="edge15" class="edge">
<title>/lib/features/core/data/wa/wa_api.dart&#45;&gt;/lib/features/core/data/wa/models/wa_weather.dart</title>
<path fill="none" stroke="black" stroke-width="1.3" d="M872,-151.2C872,-139.96 872,-125.02 872,-112"/>
<polygon fill="black" stroke="black" stroke-width="1.3" points="875.5,-112.24 872,-102.24 868.5,-112.24 875.5,-112.24"/>
</g>
<!-- /lib/features/core/data/wa/weather_repository_wa.dart&#45;&gt;/lib/features/core/data/wa/wa_api.dart -->
<g id="edge16" class="edge">
<title>/lib/features/core/data/wa/weather_repository_wa.dart&#45;&gt;/lib/features/core/data/wa/wa_api.dart</title>
<path fill="none" stroke="black" stroke-width="1.3" d="M860.01,-274.16C862.26,-254.67 865.96,-222.69 868.66,-199.4"/>
<polygon fill="black" stroke="black" stroke-width="1.3" points="872.1,-200.09 869.77,-189.76 865.15,-199.29 872.1,-200.09"/>
</g>
<!-- /lib/features/core/data/wa/weather_repository_wa.dart&#45;&gt;/lib/features/core/domain/entities/search_query.dart -->
<g id="edge17" class="edge">
<title>/lib/features/core/data/wa/weather_repository_wa.dart&#45;&gt;/lib/features/core/domain/entities/search_query.dart</title>
<path fill="none" stroke="black" stroke-width="1.3" d="M798.65,-274.03C786.31,-271.01 773.31,-268.28 761,-266.5 735.58,-262.83 553.41,-269.05 530,-258.5 465.8,-229.57 485.24,-172.35 421,-143.5 395.75,-132.16 197.87,-145.34 172,-135.5 157.13,-129.85 143.24,-119.13 132.31,-108.84"/>
<polygon fill="black" stroke="black" stroke-width="1.3" points="134.81,-106.4 125.26,-101.82 129.87,-111.35 134.81,-106.4"/>
</g>
<!-- /lib/features/core/data/wa/weather_repository_wa.dart&#45;&gt;/lib/features/core/domain/entities/search_response.dart -->
<g id="edge18" class="edge">
<title>/lib/features/core/data/wa/weather_repository_wa.dart&#45;&gt;/lib/features/core/domain/entities/search_response.dart</title>
<path fill="none" stroke="black" stroke-width="1.3" d="M798.38,-274.01C786.12,-271.01 773.22,-268.29 761,-266.5 749.78,-264.85 565.75,-265.72 557,-258.5 516.5,-225.09 567.51,-180.24 530,-143.5 501.11,-115.21 396.91,-98.62 323.13,-90.17"/>
<polygon fill="black" stroke="black" stroke-width="1.3" points="323.84,-86.73 313.52,-89.1 323.07,-93.69 323.84,-86.73"/>
</g>
<!-- /lib/features/core/data/wa/weather_repository_wa.dart&#45;&gt;/lib/features/core/domain/repositories/weather_repository.dart -->
<g id="edge19" class="edge">
<title>/lib/features/core/data/wa/weather_repository_wa.dart&#45;&gt;/lib/features/core/domain/repositories/weather_repository.dart</title>
<path fill="none" stroke="black" stroke-width="1.3" d="M798.65,-274.02C786.31,-271 773.31,-268.27 761,-266.5 654.92,-251.26 625.66,-276.46 520,-258.5 438.9,-244.72 348.73,-213.49 292.94,-192.2"/>
<polygon fill="black" stroke="black" stroke-width="1.3" points="294.33,-188.99 283.74,-188.66 291.82,-195.52 294.33,-188.99"/>
</g>
<!-- /lib/features/core/domain/repositories/weather_repository.dart&#45;&gt;/lib/features/core/domain/entities/search_query.dart -->
<g id="edge20" class="edge">
<title>/lib/features/core/domain/repositories/weather_repository.dart&#45;&gt;/lib/features/core/domain/entities/search_query.dart</title>
<path fill="none" stroke="black" stroke-width="1.3" d="M199.87,-151.17C190.5,-146.49 180.7,-141.15 172,-135.5 159.63,-127.46 146.95,-117.33 136.24,-108.11"/>
<polygon fill="black" stroke="black" stroke-width="1.3" points="138.68,-105.6 128.86,-101.62 134.06,-110.86 138.68,-105.6"/>
</g>
<!-- /lib/features/core/domain/repositories/weather_repository.dart&#45;&gt;/lib/features/core/domain/entities/search_response.dart -->
<g id="edge21" class="edge">
<title>/lib/features/core/domain/repositories/weather_repository.dart&#45;&gt;/lib/features/core/domain/entities/search_response.dart</title>
<path fill="none" stroke="black" stroke-width="1.3" d="M240.42,-151.2C241.34,-139.96 242.56,-125.02 243.63,-112"/>
<polygon fill="black" stroke="black" stroke-width="1.3" points="247.1,-112.49 244.42,-102.24 240.12,-111.92 247.1,-112.49"/>
</g>
<!-- /lib/features/core/presentation/app.dart&#45;&gt;/lib/features/core/domain/entities/search_query.dart -->
<g id="edge22" class="edge">
<title>/lib/features/core/presentation/app.dart&#45;&gt;/lib/features/core/domain/entities/search_query.dart</title>
<path fill="none" stroke="black" stroke-width="1.3" d="M211.86,-287.41C193.33,-283.23 169.57,-274.9 155,-258.5 118.35,-217.25 110.32,-150.26 108.9,-112.09"/>
<polygon fill="black" stroke="black" stroke-width="1.3" points="112.4,-112.21 108.69,-102.29 105.41,-112.37 112.4,-112.21"/>
</g>
<!-- /lib/features/core/presentation/app.dart&#45;&gt;/lib/features/core/domain/repositories/weather_repository.dart -->
<g id="edge23" class="edge">
<title>/lib/features/core/presentation/app.dart&#45;&gt;/lib/features/core/domain/repositories/weather_repository.dart</title>
<path fill="none" stroke="black" stroke-width="1.3" d="M239,-274.16C239,-254.76 239,-222.98 239,-199.72"/>
<polygon fill="black" stroke="black" stroke-width="1.3" points="242.5,-199.77 239,-189.77 235.5,-199.77 242.5,-199.77"/>
</g>
</g>
</svg>
